<?xml version="1.0" encoding="UTF-8"?>
<svg width="700pt" height="700pt" version="1.1" viewBox="0 0 700 700" xmlns="http://www.w3.org/2000/svg" xmlns:xlink="http://www.w3.org/1999/xlink">
 <defs>
  <symbol id="d" overflow="visible">
   <path d="m29.312-1.75c-1.5117 0.78125-3.0898 1.3711-4.7344 1.7656-1.6367 0.40625-3.3398 0.60938-5.1094 0.60938-5.3125 0-9.5273-1.4844-12.641-4.4531-3.1055-2.9688-4.6562-7-4.6562-12.094s1.5508-9.125 4.6562-12.094c3.1133-2.9688 7.3281-4.4531 12.641-4.4531 1.7695 0 3.4727 0.19922 5.1094 0.59375 1.6445 0.39844 3.2227 0.99219 4.7344 1.7812v6.5938c-1.5312-1.0391-3.0391-1.8008-4.5156-2.2812-1.4805-0.48828-3.0391-0.73438-4.6719-0.73438-2.9375 0-5.2461 0.94531-6.9219 2.8281-1.6797 1.875-2.5156 4.4648-2.5156 7.7656 0 3.293 0.83594 5.8828 2.5156 7.7656 1.6758 1.875 3.9844 2.8125 6.9219 2.8125 1.6328 0 3.1914-0.23828 4.6719-0.71875 1.4766-0.48828 2.9844-1.2539 4.5156-2.2969z"/>
  </symbol>
  <symbol id="k" overflow="visible">
   <path d="m21.453-17.406c-0.67969-0.3125-1.3516-0.53906-2.0156-0.6875-0.65625-0.15625-1.3203-0.23438-1.9844-0.23438-1.9688 0-3.4844 0.63281-4.5469 1.8906-1.0547 1.2617-1.5781 3.0703-1.5781 5.4219v11.016h-7.6562v-23.922h7.6562v3.9219c0.97656-1.5625 2.1016-2.7031 3.375-3.4219 1.2812-0.71875 2.8125-1.0781 4.5938-1.0781 0.25 0 0.52344 0.011719 0.82812 0.03125 0.30078 0.023438 0.73438 0.070312 1.2969 0.14062z"/>
  </symbol>
  <symbol id="a" overflow="visible">
   <path d="m27.562-12.031v2.1875h-17.891c0.1875 1.793 0.83203 3.1367 1.9375 4.0312 1.1133 0.89844 2.6719 1.3438 4.6719 1.3438 1.6016 0 3.25-0.23438 4.9375-0.70312 1.6875-0.47656 3.4219-1.2031 5.2031-2.1719v5.8906c-1.8047 0.6875-3.6094 1.2031-5.4219 1.5469-1.8125 0.35156-3.6211 0.53125-5.4219 0.53125-4.3359 0-7.7031-1.0977-10.109-3.2969-2.3984-2.207-3.5938-5.2969-3.5938-9.2656 0-3.9062 1.1758-6.9727 3.5312-9.2031 2.3633-2.2383 5.6094-3.3594 9.7344-3.3594 3.7578 0 6.7695 1.1367 9.0312 3.4062 2.2578 2.2617 3.3906 5.2812 3.3906 9.0625zm-7.8594-2.5312c0-1.457-0.42969-2.6289-1.2812-3.5156-0.84375-0.89453-1.9492-1.3438-3.3125-1.3438-1.4922 0-2.6992 0.41797-3.625 1.25-0.91797 0.83594-1.4922 2.0391-1.7188 3.6094z"/>
  </symbol>
  <symbol id="j" overflow="visible">
   <path d="m14.391-10.766c-1.5938 0-2.793 0.27344-3.5938 0.8125-0.80469 0.54297-1.2031 1.3398-1.2031 2.3906 0 0.96875 0.32031 1.7305 0.96875 2.2812 0.64453 0.54297 1.5469 0.8125 2.7031 0.8125 1.4375 0 2.6445-0.51562 3.625-1.5469 0.98828-1.0312 1.4844-2.3203 1.4844-3.875v-0.875zm11.688-2.8906v13.656h-7.7031v-3.5469c-1.0312 1.4492-2.1875 2.5078-3.4688 3.1719s-2.8398 1-4.6719 1c-2.4805 0-4.4961-0.72266-6.0469-2.1719-1.543-1.4453-2.3125-3.3203-2.3125-5.625 0-2.8125 0.96094-4.8672 2.8906-6.1719 1.9375-1.3125 4.9688-1.9688 9.0938-1.9688h4.5156v-0.60938c0-1.207-0.48047-2.0938-1.4375-2.6562-0.94922-0.5625-2.4375-0.84375-4.4688-0.84375-1.6367 0-3.1562 0.16797-4.5625 0.5-1.4062 0.32422-2.7188 0.8125-3.9375 1.4688v-5.8281c1.6445-0.40625 3.2891-0.70703 4.9375-0.90625 1.6562-0.20703 3.3047-0.3125 4.9531-0.3125 4.3203 0 7.4375 0.85547 9.3438 2.5625 1.9141 1.6992 2.875 4.4609 2.875 8.2812z"/>
  </symbol>
  <symbol id="i" overflow="visible">
   <path d="m12.031-30.719v6.7969h7.875v5.4688h-7.875v10.141c0 1.1172 0.21875 1.8711 0.65625 2.2656 0.4375 0.38672 1.3125 0.57812 2.625 0.57812h3.9375v5.4688h-6.5625c-3.0234 0-5.1641-0.62891-6.4219-1.8906-1.2617-1.2578-1.8906-3.3984-1.8906-6.4219v-10.141h-3.7969v-5.4688h3.7969v-6.7969z"/>
  </symbol>
  <symbol id="h" overflow="visible">
   <path d="m19.953-20.422v-12.812h7.6875v33.234h-7.6875v-3.4531c-1.0547 1.4062-2.2148 2.4375-3.4844 3.0938-1.2734 0.65625-2.7422 0.98438-4.4062 0.98438-2.9492 0-5.3711-1.1719-7.2656-3.5156-1.8867-2.3438-2.8281-5.3594-2.8281-9.0469s0.94141-6.7031 2.8281-9.0469c1.8945-2.3438 4.3164-3.5156 7.2656-3.5156 1.6562 0 3.1172 0.33594 4.3906 1 1.2812 0.65625 2.4453 1.6836 3.5 3.0781zm-5.0469 15.484c1.6445 0 2.8945-0.59766 3.75-1.7969 0.86328-1.1953 1.2969-2.9297 1.2969-5.2031 0-2.2812-0.43359-4.0195-1.2969-5.2188-0.85547-1.1953-2.1055-1.7969-3.75-1.7969-1.625 0-2.8711 0.60156-3.7344 1.7969-0.85547 1.1992-1.2812 2.9375-1.2812 5.2188 0 2.2734 0.42578 4.0078 1.2812 5.2031 0.86328 1.1992 2.1094 1.7969 3.7344 1.7969z"/>
  </symbol>
  <symbol id="g" overflow="visible">
   <path d="m16.406-4.9375c1.6328 0 2.8828-0.59766 3.75-1.7969 0.86328-1.1953 1.2969-2.9297 1.2969-5.2031 0-2.2812-0.43359-4.0195-1.2969-5.2188-0.86719-1.1953-2.1172-1.7969-3.75-1.7969-1.6367 0-2.8906 0.60547-3.7656 1.8125-0.875 1.1992-1.3125 2.9336-1.3125 5.2031 0 2.2617 0.4375 3.9961 1.3125 5.2031 0.875 1.1992 2.1289 1.7969 3.7656 1.7969zm-5.0781-15.484c1.0508-1.3945 2.2188-2.4219 3.5-3.0781 1.2812-0.66406 2.7539-1 4.4219-1 2.9453 0 5.3672 1.1719 7.2656 3.5156 1.8945 2.3438 2.8438 5.3594 2.8438 9.0469s-0.94922 6.7031-2.8438 9.0469c-1.8984 2.3438-4.3203 3.5156-7.2656 3.5156-1.668 0-3.1406-0.33594-4.4219-1s-2.4492-1.6914-3.5-3.0781v3.4531h-7.6562v-33.234h7.6562z"/>
  </symbol>
  <symbol id="f" overflow="visible">
   <path d="m0.53125-23.922h7.6562l6.4219 16.234 5.4688-16.234h7.6562l-10.062 26.188c-1.0117 2.6641-2.1953 4.5234-3.5469 5.5781-1.3438 1.0625-3.1211 1.5938-5.3281 1.5938h-4.4219v-5.0156h2.3906c1.3008 0 2.2422-0.21094 2.8281-0.625 0.59375-0.40625 1.0547-1.1484 1.3906-2.2188l0.20312-0.65625z"/>
  </symbol>
  <symbol id="e" overflow="visible">
   <path d="m0.21875-31.891h8.2656l8.4531 23.531 8.4375-23.531h8.2656l-11.812 31.891h-9.7969z"/>
  </symbol>
  <symbol id="p" overflow="visible">
   <path d="m4.0156-31.891h8.2188v31.891h-8.2188z"/>
  </symbol>
  <symbol id="c" overflow="visible">
   <path d="m4.0156-31.891h9.1875l11.594 21.875v-21.875h7.7969v31.891h-9.1875l-11.594-21.875v21.875h-7.7969z"/>
  </symbol>
  <symbol id="o" overflow="visible">
   <path d="m2.4531-31.891h26.812v4.9688l-17.109 20.703h17.594v6.2188h-27.781v-4.9844l17.109-20.688h-16.625z"/>
  </symbol>
  <symbol id="b" overflow="visible">
   <path d="m4.0156-31.891h22.203v6.2188h-13.984v5.9375h13.141v6.2188h-13.141v7.2969h14.453v6.2188h-22.672z"/>
  </symbol>
  <symbol id="n" overflow="visible">
   <path d="m26.219-30.891v6.75c-1.7617-0.78125-3.4766-1.3672-5.1406-1.7656-1.668-0.40625-3.2422-0.60938-4.7188-0.60938-1.9609 0-3.4141 0.27344-4.3594 0.8125-0.9375 0.54297-1.4062 1.3867-1.4062 2.5312 0 0.85547 0.31641 1.5234 0.95312 2 0.63281 0.46875 1.7852 0.875 3.4531 1.2188l3.5 0.70312c3.5391 0.71875 6.0625 1.8047 7.5625 3.25 1.5 1.4492 2.25 3.5117 2.25 6.1875 0 3.5234-1.0469 6.1406-3.1406 7.8594-2.0859 1.7188-5.2734 2.5781-9.5625 2.5781-2.0234 0-4.0547-0.19531-6.0938-0.57812-2.0312-0.38281-4.0625-0.95703-6.0938-1.7188v-6.9375c2.0312 1.0859 3.9922 1.9023 5.8906 2.4531 1.9062 0.54297 3.7422 0.8125 5.5156 0.8125 1.7891 0 3.1602-0.29688 4.1094-0.89062 0.95703-0.60156 1.4375-1.457 1.4375-2.5625 0-1-0.32422-1.7695-0.96875-2.3125-0.64844-0.53906-1.9375-1.0234-3.875-1.4531l-3.1875-0.70312c-3.1875-0.6875-5.5234-1.7734-7-3.2656-1.4688-1.5-2.2031-3.5156-2.2031-6.0469 0-3.1758 1.0234-5.6172 3.0781-7.3281 2.0508-1.707 5-2.5625 8.8438-2.5625 1.75 0 3.5508 0.13281 5.4062 0.39062 1.8516 0.26172 3.7695 0.65625 5.75 1.1875z"/>
  </symbol>
  <symbol id="m" overflow="visible">
   <path d="m0.21875-31.891h29.391v6.2188h-10.578v25.672h-8.2188v-25.672h-10.594z"/>
  </symbol>
  <symbol id="l" overflow="visible">
   <path d="m4.0156-31.891h8.2188v19.109c0 2.6367 0.42969 4.5234 1.2969 5.6562 0.86328 1.1367 2.2695 1.7031 4.2188 1.7031 1.9688 0 3.3789-0.56641 4.2344-1.7031 0.86328-1.1328 1.2969-3.0195 1.2969-5.6562v-19.109h8.2344v19.109c0 4.5234-1.1367 7.8867-3.4062 10.094-2.2617 2.2109-5.7148 3.3125-10.359 3.3125-4.625 0-8.0742-1.1016-10.344-3.3125-2.2617-2.207-3.3906-5.5703-3.3906-10.094z"/>
  </symbol>
 </defs>
 <g>
  <path d="m350 175c10.441 0 20.457-4.1484 27.844-11.531 7.3828-7.3867 11.531-17.402 11.531-27.844s-4.1484-20.457-11.531-27.844c-7.3867-7.3828-17.402-11.531-27.844-11.531s-20.457 4.1484-27.844 11.531c-7.3828 7.3867-11.531 17.402-11.531 27.844 0.011719 10.438 4.1641 20.449 11.547 27.828 7.3789 7.3828 17.391 11.535 27.828 11.547zm0-61.25c5.8008 0 11.367 2.3047 15.469 6.4062s6.4062 9.668 6.4062 15.469-2.3047 11.367-6.4062 15.469-9.668 6.4062-15.469 6.4062-11.367-2.3047-15.469-6.4062-6.4062-9.668-6.4062-15.469 2.3047-11.367 6.4062-15.469 9.668-6.4062 15.469-6.4062z"/>
  <path d="m175 332.5h350c3.4375 0.003906 6.5547-2.0039 7.9766-5.1328 1.418-3.1289 0.875-6.8008-1.3867-9.3828l-61.25-70c-1.668-1.8945-4.0664-2.9805-6.5898-2.9844h-35v17.5h31.027l45.938 52.5h-92.363c4.375-20.488 6.6016-41.375 6.6484-62.328v-80.238 0.003906c-0.089844-56.98-19.078-112.32-53.996-157.35l-9.1016-11.707c-1.6016-2.0625-4.043-3.3008-6.6523-3.3789-2.6094-0.074219-5.1172 1.0195-6.8398 2.9844-40.883 46.723-63.414 106.7-63.41 168.78v80.91c0.046875 20.953 2.2734 41.84 6.6484 62.328h-92.398l45.938-52.5h31.062v-17.5h-35c-2.5234 0.003906-4.9219 1.0898-6.5898 2.9844l-61.25 70c-2.2617 2.582-2.8047 6.2539-1.3867 9.3828 1.4219 3.1289 4.5391 5.1367 7.9766 5.1328zm174.75-309.82 2.4414 3.1484c8.5977 11.113 16.191 22.965 22.691 35.422h-50.086c7.0547-13.629 15.414-26.547 24.953-38.57zm-52.254 149.08c0.046875-31.965 6.5156-63.594 19.023-93.012h66.676c12.668 29.613 19.23 61.477 19.301 93.688v80.238-0.003906c-0.003906 20.969-2.3242 41.871-6.9141 62.328h-91.172c-4.5898-20.457-6.9102-41.359-6.9141-62.328z"/>
  <path d="m605.1 280.45c-14.848 1.8242-28.516 9.0117-38.43 20.211-9.918 11.199-15.402 25.637-15.418 40.594-12.281 0.054688-24.266 3.7812-34.414 10.691-10.152 6.9141-18.008 16.699-22.559 28.105-8.4883-2.5273-17.297-3.8047-26.152-3.7969-4.3945 0.03125-8.7812 0.37109-13.125 1.0234v-36.023h-17.5v40.25c-15.809 5.582-29.785 15.395-40.406 28.367-10.617 12.973-17.477 28.613-19.828 45.211-6.4805 0.51172-12.781 2.3555-18.516 5.418v-22.996h-17.5v22.996c-5.7344-3.0469-12.039-4.875-18.516-5.375-2.3477-16.598-9.207-32.238-19.828-45.211s-24.598-22.785-40.406-28.367v-40.293h-17.5v36.023c-4.3438-0.65234-8.7305-0.99219-13.125-1.0234-8.8555-0.007812-17.664 1.2695-26.152 3.7969-4.5508-11.406-12.406-21.191-22.559-28.105-10.148-6.9102-22.133-10.637-34.414-10.691-0.015625-14.957-5.5-29.395-15.418-40.594-9.9141-11.199-23.582-18.387-38.43-20.211-1.75-5.2227-5.0938-9.7617-9.5586-12.984-4.4688-3.2188-9.8359-4.9531-15.344-4.9609v17.5c2.3203 0 4.5469 0.92188 6.1875 2.5625s2.5625 3.8672 2.5625 6.1875 0.92188 4.5469 2.5625 6.1875 3.8672 2.5625 6.1875 2.5625c11.598 0.015625 22.719 4.6289 30.922 12.828 8.1992 8.2031 12.812 19.324 12.828 30.922-0.007812 2.7031-0.26562 5.4023-0.77734 8.0586-0.53516 2.8359 0.36328 5.7539 2.4023 7.7969s4.9531 2.9492 7.7891 2.4219c2.668-0.50391 5.3711-0.76562 8.0859-0.77734 9.9766 0.042969 19.641 3.4727 27.406 9.7344s13.172 14.977 15.328 24.715c0.55078 2.5352 2.1953 4.6992 4.4961 5.9023 2.3008 1.2031 5.0156 1.3242 7.4141 0.32813 22.363-9.2852 47.852-7.0859 68.293 5.8945s33.27 35.109 34.379 59.301c0.10938 2.4219 1.2266 4.6914 3.0781 6.2578 1.8594 1.5625 4.2734 2.293 6.6875 2.0195l1.375-0.18359h-0.003906c0.71875-0.12109 1.4453-0.19531 2.1719-0.21875 9.2891 0.035156 18.051 4.3164 23.793 11.621 1.6602 2.0742 4.1719 3.2852 6.832 3.2852s5.1719-1.2109 6.832-3.2852c5.7422-7.3047 14.504-11.586 23.793-11.621 0.72656 0.023438 1.4531 0.097656 2.1719 0.21875l1.375 0.18359h-0.003906c2.4141 0.27344 4.8281-0.45703 6.6875-2.0195 1.8516-1.5664 2.9688-3.8359 3.0781-6.2578 1.1094-24.191 13.938-46.32 34.379-59.301s45.93-15.18 68.293-5.8945c2.4023 0.98047 5.1172 0.85937 7.4219-0.33203 2.2969-1.207 3.9375-3.3633 4.4883-5.8984 2.1562-9.7383 7.5625-18.453 15.328-24.715s17.43-9.6914 27.406-9.7344c2.7148 0.011719 5.418 0.27344 8.0859 0.77734 2.8359 0.52734 5.75-0.37891 7.7891-2.4219s2.9375-4.9609 2.4023-7.7969c-0.51172-2.6562-0.76953-5.3555-0.77734-8.0586 0.015625-11.598 4.6289-22.719 12.828-30.922 8.2031-8.1992 19.324-12.812 30.922-12.828 2.3203 0 4.5469-0.92188 6.1875-2.5625s2.5625-3.8672 2.5625-6.1875c0-4.832 3.918-8.75 8.75-8.75v-17.5c-5.5078 0.007812-10.875 1.7422-15.344 4.9609-4.4648 3.2227-7.8086 7.7617-9.5586 12.984z"/>
  <path d="m350 420c6.9609 0 13.641-2.7656 18.562-7.6875s7.6875-11.602 7.6875-18.562v-35h8.75c0 4.6406 1.8438 9.0938 5.125 12.375s7.7344 5.125 12.375 5.125h8.75c4.6406 0 9.0938-1.8438 12.375-5.125s5.125-7.7344 5.125-12.375v-17.5h-17.5v17.5h-8.75c0-4.6406-1.8438-9.0938-5.125-12.375s-7.7344-5.125-12.375-5.125h-8.75c-4.6406 0-9.0938 1.8438-12.375 5.125s-5.125 7.7344-5.125 12.375v35c0 4.832-3.918 8.75-8.75 8.75s-8.75-3.918-8.75-8.75v-35c0-4.6406-1.8438-9.0938-5.125-12.375s-7.7344-5.125-12.375-5.125h-8.75c-4.6406 0-9.0938 1.8438-12.375 5.125s-5.125 7.7344-5.125 12.375h-8.75v-17.5h-17.5v17.5c0 4.6406 1.8438 9.0938 5.125 12.375s7.7344 5.125 12.375 5.125h8.75c4.6406 0 9.0938-1.8438 12.375-5.125s5.125-7.7344 5.125-12.375h8.75v35c0 6.9609 2.7656 13.641 7.6875 18.562s11.602 7.6875 18.562 7.6875z"/>
  <path d="m200.93 492.5c-1.4219-13.672-7.3906-26.469-16.953-36.344-9.5586-9.875-22.156-16.254-35.773-18.117-2.0078-14.684-9.2617-28.141-20.418-37.891-11.16-9.75-25.473-15.133-40.289-15.152v17.5c11.598 0.015625 22.719 4.6289 30.922 12.828 8.1992 8.2031 12.812 19.324 12.828 30.922 0 2.3203 0.92188 4.5469 2.5625 6.1875s3.8672 2.5625 6.1875 2.5625c11.68 0.027344 22.867 4.7148 31.082 13.02 8.2148 8.3086 12.773 19.547 12.668 31.23-0.14453 4.3789 2.9766 8.1914 7.2969 8.9141 10.203 1.6875 19.469 6.9492 26.148 14.84 6.6797 7.8945 10.332 17.906 10.305 28.246h17.5c0.035156-13.25-4.2461-26.152-12.199-36.75-7.9492-10.602-19.137-18.324-31.867-21.996z"/>
  <path d="m560.88 481.25h-9.625c-11.598 0.015625-22.719 4.6289-30.922 12.828-8.1992 8.2031-12.812 19.324-12.828 30.922v8.75h17.5v-8.75c0-6.9609 2.7656-13.641 7.6875-18.562s11.602-7.6875 18.562-7.6875h17.5c2.3203 0 4.5469-0.92188 6.1875-2.5625s2.5625-3.8672 2.5625-6.1875c0-6.9609 2.7656-13.641 7.6875-18.562s11.602-7.6875 18.562-7.6875h8.75v-17.5h-8.75c-10.082 0.011719-19.852 3.5-27.664 9.875-7.8086 6.375-13.18 15.25-15.211 25.125z"/>
  <path d="m376.25 192.5h-52.5c-4.832 0-8.75 3.918-8.75 8.75v87.5c0 2.3203 0.92188 4.5469 2.5625 6.1875s3.8672 2.5625 6.1875 2.5625h52.5c2.3203 0 4.5469-0.92188 6.1875-2.5625s2.5625-3.8672 2.5625-6.1875v-87.5c0-2.3203-0.92188-4.5469-2.5625-6.1875s-3.8672-2.5625-6.1875-2.5625zm-8.75 87.5h-8.75v-35h-17.5v35h-8.75v-70h35z"/>
  <path d="m341.25 218.75h17.5v17.5h-17.5z"/>
  <use x="70" y="691.25" xlink:href="#d"/>
  <use x="102.109375" y="691.25" xlink:href="#k"/>
  <use x="123.683594" y="691.25" xlink:href="#a"/>
  <use x="153.355469" y="691.25" xlink:href="#j"/>
  <use x="182.878906" y="691.25" xlink:href="#i"/>
  <use x="203.792969" y="691.25" xlink:href="#a"/>
  <use x="233.464844" y="691.25" xlink:href="#h"/>
  <use x="280.011719" y="691.25" xlink:href="#g"/>
  <use x="311.328125" y="691.25" xlink:href="#f"/>
  <use x="355.078125" y="691.25" xlink:href="#e"/>
  <use x="388.9375" y="691.25" xlink:href="#p"/>
  <use x="405.21875" y="691.25" xlink:href="#c"/>
  <use x="441.832031" y="691.25" xlink:href="#o"/>
  <use x="473.554688" y="691.25" xlink:href="#b"/>
  <use x="503.441406" y="691.25" xlink:href="#c"/>
  <use x="540.054688" y="691.25" xlink:href="#d"/>
  <use x="572.164062" y="691.25" xlink:href="#b"/>
  <use x="617.28125" y="691.25" xlink:href="#n"/>
  <use x="648.789062" y="691.25" xlink:href="#m"/>
  <use x="678.632812" y="691.25" xlink:href="#l"/>
 </g>
</svg>
